<?xml version="1.0" standalone="no"?>
<!DOCTYPE svg PUBLIC "-//W3C//DTD SVG 20010904//EN"
 "http://www.w3.org/TR/2001/REC-SVG-20010904/DTD/svg10.dtd">
<svg version="1.0" xmlns="http://www.w3.org/2000/svg"
 width="512.000000pt" height="512.000000pt" viewBox="0 0 512.000000 512.000000"
 preserveAspectRatio="xMidYMid meet">
<metadata>
Created by potrace 1.14, written by Peter Selinger 2001-2017
</metadata>
<g transform="translate(0.000000,512.000000) scale(0.100000,-0.100000)"
fill="#000000" stroke="none">
<path d="M1260 4335 c-1 -11 -3 -29 -6 -40 -2 -11 -11 -65 -19 -120 -8 -55
-17 -116 -19 -135 -3 -19 -8 -60 -11 -90 -3 -30 -7 -69 -9 -86 -27 -192 -28
-780 -1 -934 2 -14 9 -54 15 -90 6 -36 13 -78 16 -95 7 -41 41 -158 66 -230
48 -137 128 -268 209 -345 l48 -45 6 -90 c3 -49 8 -117 10 -150 2 -33 7 -114
11 -180 4 -66 8 -136 9 -155 2 -19 4 -53 4 -76 1 -37 12 -54 126 -190 123
-146 243 -278 386 -422 52 -52 79 -72 98 -73 38 0 136 -9 205 -18 58 -8 227
-6 276 3 22 4 121 18 235 33 22 3 41 6 42 7 12 9 305 301 323 322 25 30 112
133 142 169 9 11 37 44 62 74 39 47 46 62 47 100 1 25 2 60 4 76 1 17 5 82 9
145 4 63 9 142 11 175 2 33 7 103 10 155 l6 95 42 41 c68 65 103 113 150 204
93 178 147 389 173 670 20 209 7 749 -21 900 -3 14 -7 54 -10 90 -3 36 -8 72
-10 80 -2 8 -7 39 -10 69 -4 30 -9 63 -11 75 -2 12 -7 37 -10 56 -8 48 -10 48
-23 -7 -51 -209 -190 -552 -325 -802 -43 -80 -53 -90 -62 -65 -13 34 -97 148
-149 200 -265 270 -716 365 -1106 234 -237 -80 -412 -222 -534 -435 -10 -17
-12 -16 -28 8 -54 83 -193 378 -253 537 -26 68 -82 239 -107 325 -8 28 -16 41
-17 30z"/>
</g>
</svg>
